<mxfile host="app.diagrams.net" modified="2023-02-12T02:05:51.524Z" agent="5.0 (Windows NT 10.0; Win64; x64) AppleWebKit/537.36 (KHTML, like Gecko) Chrome/110.0.0.0 Safari/537.36" etag="PMlRBn0-koq8kc76qeZZ" version="20.8.18" type="github">
  <diagram name="Page-1" id="dWxECDOu3dMziDgWev7v">
    <mxGraphModel dx="1050" dy="594" grid="1" gridSize="10" guides="1" tooltips="1" connect="1" arrows="1" fold="1" page="1" pageScale="1" pageWidth="850" pageHeight="1100" math="0" shadow="0">
      <root>
        <mxCell id="0" />
        <mxCell id="1" parent="0" />
        <mxCell id="lP-BkphfwcFj27sYCUh9-1" value="User" style="swimlane;horizontal=0;whiteSpace=wrap;html=1;" vertex="1" parent="1">
          <mxGeometry x="40" y="130" width="910" height="160" as="geometry" />
        </mxCell>
        <mxCell id="lP-BkphfwcFj27sYCUh9-2" value="User click change password" style="shape=ellipse;html=1;fillColor=strokeColor;strokeWidth=2;verticalLabelPosition=bottom;verticalAlignment=top;perimeter=ellipsePerimeter;" vertex="1" parent="lP-BkphfwcFj27sYCUh9-1">
          <mxGeometry x="180" y="20" width="40" height="40" as="geometry" />
        </mxCell>
        <mxCell id="lP-BkphfwcFj27sYCUh9-3" value="" style="ellipse;html=1;shape=endState;fillColor=#000000;strokeColor=#ff0000;strokeWidth=2;fontFamily=Helvetica;fontSize=12;fontColor=default;" vertex="1" parent="lP-BkphfwcFj27sYCUh9-1">
          <mxGeometry x="860" y="50" width="30" height="30" as="geometry" />
        </mxCell>
        <mxCell id="lP-BkphfwcFj27sYCUh9-28" value="User provide password" style="rounded=1;whiteSpace=wrap;html=1;strokeWidth=2;fontFamily=Helvetica;fontSize=12;" vertex="1" parent="lP-BkphfwcFj27sYCUh9-1">
          <mxGeometry x="385" y="20" width="120" height="60" as="geometry" />
        </mxCell>
        <mxCell id="lP-BkphfwcFj27sYCUh9-4" value="ProfileController" style="swimlane;horizontal=0;whiteSpace=wrap;html=1;" vertex="1" parent="1">
          <mxGeometry x="40" y="300" width="910" height="400" as="geometry" />
        </mxCell>
        <mxCell id="lP-BkphfwcFj27sYCUh9-5" value="Promp changing password success" style="rounded=1;whiteSpace=wrap;html=1;strokeWidth=2;fontFamily=Helvetica;fontSize=12;" vertex="1" parent="lP-BkphfwcFj27sYCUh9-4">
          <mxGeometry x="770" y="40" width="120" height="60" as="geometry" />
        </mxCell>
        <mxCell id="lP-BkphfwcFj27sYCUh9-27" style="edgeStyle=orthogonalEdgeStyle;rounded=0;orthogonalLoop=1;jettySize=auto;html=1;entryX=0;entryY=0.5;entryDx=0;entryDy=0;dashed=1;" edge="1" parent="lP-BkphfwcFj27sYCUh9-4" source="lP-BkphfwcFj27sYCUh9-6" target="lP-BkphfwcFj27sYCUh9-24">
          <mxGeometry relative="1" as="geometry" />
        </mxCell>
        <mxCell id="lP-BkphfwcFj27sYCUh9-6" value="Display change Password form" style="rounded=1;whiteSpace=wrap;html=1;strokeWidth=2;fontFamily=Helvetica;fontSize=12;" vertex="1" parent="lP-BkphfwcFj27sYCUh9-4">
          <mxGeometry x="50" y="20" width="120" height="60" as="geometry" />
        </mxCell>
        <mxCell id="lP-BkphfwcFj27sYCUh9-48" style="edgeStyle=orthogonalEdgeStyle;rounded=0;orthogonalLoop=1;jettySize=auto;html=1;dashed=1;" edge="1" parent="lP-BkphfwcFj27sYCUh9-4" source="lP-BkphfwcFj27sYCUh9-13" target="lP-BkphfwcFj27sYCUh9-46">
          <mxGeometry relative="1" as="geometry" />
        </mxCell>
        <mxCell id="lP-BkphfwcFj27sYCUh9-49" value="no" style="edgeLabel;html=1;align=center;verticalAlign=middle;resizable=0;points=[];" vertex="1" connectable="0" parent="lP-BkphfwcFj27sYCUh9-48">
          <mxGeometry x="0.1173" y="1" relative="1" as="geometry">
            <mxPoint as="offset" />
          </mxGeometry>
        </mxCell>
        <mxCell id="lP-BkphfwcFj27sYCUh9-13" value="Does retyping password match new password?" style="strokeWidth=2;html=1;shape=mxgraph.flowchart.decision;whiteSpace=wrap;" vertex="1" parent="lP-BkphfwcFj27sYCUh9-4">
          <mxGeometry x="490" y="270" width="120" height="110" as="geometry" />
        </mxCell>
        <mxCell id="lP-BkphfwcFj27sYCUh9-24" value="Ask for old and new Password" style="rounded=1;whiteSpace=wrap;html=1;strokeWidth=2;fontFamily=Helvetica;fontSize=12;" vertex="1" parent="lP-BkphfwcFj27sYCUh9-4">
          <mxGeometry x="240" y="20" width="120" height="60" as="geometry" />
        </mxCell>
        <mxCell id="lP-BkphfwcFj27sYCUh9-30" value="send Request checking old password" style="rounded=1;whiteSpace=wrap;html=1;strokeWidth=2;fontFamily=Helvetica;fontSize=12;" vertex="1" parent="lP-BkphfwcFj27sYCUh9-4">
          <mxGeometry x="420" y="20" width="120" height="60" as="geometry" />
        </mxCell>
        <mxCell id="lP-BkphfwcFj27sYCUh9-40" style="edgeStyle=orthogonalEdgeStyle;rounded=0;orthogonalLoop=1;jettySize=auto;html=1;entryX=0;entryY=0.5;entryDx=0;entryDy=0;entryPerimeter=0;dashed=1;" edge="1" parent="lP-BkphfwcFj27sYCUh9-4" source="lP-BkphfwcFj27sYCUh9-33" target="lP-BkphfwcFj27sYCUh9-41">
          <mxGeometry relative="1" as="geometry" />
        </mxCell>
        <mxCell id="lP-BkphfwcFj27sYCUh9-33" value="Validating new Password" style="rounded=1;whiteSpace=wrap;html=1;strokeWidth=2;fontFamily=Helvetica;fontSize=12;" vertex="1" parent="lP-BkphfwcFj27sYCUh9-4">
          <mxGeometry x="210" y="150" width="120" height="60" as="geometry" />
        </mxCell>
        <mxCell id="lP-BkphfwcFj27sYCUh9-42" value="yes" style="edgeStyle=orthogonalEdgeStyle;rounded=0;orthogonalLoop=1;jettySize=auto;html=1;entryX=0;entryY=0.5;entryDx=0;entryDy=0;entryPerimeter=0;dashed=1;" edge="1" parent="lP-BkphfwcFj27sYCUh9-4" source="lP-BkphfwcFj27sYCUh9-41" target="lP-BkphfwcFj27sYCUh9-13">
          <mxGeometry relative="1" as="geometry" />
        </mxCell>
        <mxCell id="lP-BkphfwcFj27sYCUh9-47" value="no" style="edgeStyle=orthogonalEdgeStyle;rounded=0;orthogonalLoop=1;jettySize=auto;html=1;entryX=0;entryY=0.5;entryDx=0;entryDy=0;dashed=1;" edge="1" parent="lP-BkphfwcFj27sYCUh9-4" source="lP-BkphfwcFj27sYCUh9-41" target="lP-BkphfwcFj27sYCUh9-46">
          <mxGeometry relative="1" as="geometry" />
        </mxCell>
        <mxCell id="lP-BkphfwcFj27sYCUh9-41" value="Does new password match requirement?" style="strokeWidth=2;html=1;shape=mxgraph.flowchart.decision;whiteSpace=wrap;" vertex="1" parent="lP-BkphfwcFj27sYCUh9-4">
          <mxGeometry x="395" y="125" width="120" height="110" as="geometry" />
        </mxCell>
        <mxCell id="lP-BkphfwcFj27sYCUh9-46" value="Display error" style="rounded=1;whiteSpace=wrap;html=1;strokeWidth=2;fontFamily=Helvetica;fontSize=12;" vertex="1" parent="lP-BkphfwcFj27sYCUh9-4">
          <mxGeometry x="620" y="40" width="120" height="60" as="geometry" />
        </mxCell>
        <mxCell id="lP-BkphfwcFj27sYCUh9-15" value="UserController" style="swimlane;horizontal=0;whiteSpace=wrap;html=1;" vertex="1" parent="1">
          <mxGeometry x="40" y="710" width="910" height="170" as="geometry" />
        </mxCell>
        <mxCell id="lP-BkphfwcFj27sYCUh9-18" value="Update User password in DB" style="rounded=1;whiteSpace=wrap;html=1;strokeWidth=2;fontFamily=Helvetica;fontSize=12;" vertex="1" parent="lP-BkphfwcFj27sYCUh9-15">
          <mxGeometry x="490" y="60" width="120" height="60" as="geometry" />
        </mxCell>
        <mxCell id="lP-BkphfwcFj27sYCUh9-36" style="edgeStyle=orthogonalEdgeStyle;rounded=0;orthogonalLoop=1;jettySize=auto;html=1;dashed=1;" edge="1" parent="lP-BkphfwcFj27sYCUh9-15" source="lP-BkphfwcFj27sYCUh9-34" target="lP-BkphfwcFj27sYCUh9-35">
          <mxGeometry relative="1" as="geometry" />
        </mxCell>
        <mxCell id="lP-BkphfwcFj27sYCUh9-34" value="Check user password" style="rounded=1;whiteSpace=wrap;html=1;strokeWidth=2;fontFamily=Helvetica;fontSize=12;" vertex="1" parent="lP-BkphfwcFj27sYCUh9-15">
          <mxGeometry x="110" y="60" width="120" height="60" as="geometry" />
        </mxCell>
        <mxCell id="lP-BkphfwcFj27sYCUh9-35" value="Is password true?" style="strokeWidth=2;html=1;shape=mxgraph.flowchart.decision;whiteSpace=wrap;" vertex="1" parent="lP-BkphfwcFj27sYCUh9-15">
          <mxGeometry x="300" y="40" width="100" height="100" as="geometry" />
        </mxCell>
        <mxCell id="lP-BkphfwcFj27sYCUh9-19" style="edgeStyle=orthogonalEdgeStyle;rounded=0;orthogonalLoop=1;jettySize=auto;html=1;entryX=0.5;entryY=1;entryDx=0;entryDy=0;dashed=1;strokeWidth=1;fontFamily=Helvetica;fontSize=12;fontColor=default;" edge="1" parent="1" source="lP-BkphfwcFj27sYCUh9-5" target="lP-BkphfwcFj27sYCUh9-3">
          <mxGeometry relative="1" as="geometry" />
        </mxCell>
        <mxCell id="lP-BkphfwcFj27sYCUh9-20" style="edgeStyle=orthogonalEdgeStyle;rounded=0;orthogonalLoop=1;jettySize=auto;html=1;entryX=0.5;entryY=0;entryDx=0;entryDy=0;dashed=1;strokeWidth=1;fontFamily=Helvetica;fontSize=12;fontColor=default;" edge="1" parent="1" source="lP-BkphfwcFj27sYCUh9-2" target="lP-BkphfwcFj27sYCUh9-6">
          <mxGeometry relative="1" as="geometry" />
        </mxCell>
        <mxCell id="lP-BkphfwcFj27sYCUh9-21" value="Change User Password" style="text;html=1;strokeColor=none;fillColor=none;align=center;verticalAlign=middle;whiteSpace=wrap;rounded=0;fontSize=19;" vertex="1" parent="1">
          <mxGeometry x="400" y="70" width="290" height="30" as="geometry" />
        </mxCell>
        <mxCell id="lP-BkphfwcFj27sYCUh9-29" style="edgeStyle=orthogonalEdgeStyle;rounded=0;orthogonalLoop=1;jettySize=auto;html=1;entryX=0;entryY=0.5;entryDx=0;entryDy=0;dashed=1;" edge="1" parent="1" source="lP-BkphfwcFj27sYCUh9-24" target="lP-BkphfwcFj27sYCUh9-28">
          <mxGeometry relative="1" as="geometry">
            <Array as="points">
              <mxPoint x="330" y="265" />
              <mxPoint x="405" y="265" />
              <mxPoint x="405" y="180" />
            </Array>
          </mxGeometry>
        </mxCell>
        <mxCell id="lP-BkphfwcFj27sYCUh9-31" style="edgeStyle=orthogonalEdgeStyle;rounded=0;orthogonalLoop=1;jettySize=auto;html=1;dashed=1;" edge="1" parent="1" source="lP-BkphfwcFj27sYCUh9-28" target="lP-BkphfwcFj27sYCUh9-30">
          <mxGeometry relative="1" as="geometry" />
        </mxCell>
        <mxCell id="lP-BkphfwcFj27sYCUh9-37" style="edgeStyle=orthogonalEdgeStyle;rounded=0;orthogonalLoop=1;jettySize=auto;html=1;dashed=1;" edge="1" parent="1" source="lP-BkphfwcFj27sYCUh9-30" target="lP-BkphfwcFj27sYCUh9-34">
          <mxGeometry relative="1" as="geometry">
            <Array as="points">
              <mxPoint x="520" y="400" />
              <mxPoint x="210" y="400" />
            </Array>
          </mxGeometry>
        </mxCell>
        <mxCell id="lP-BkphfwcFj27sYCUh9-38" style="edgeStyle=orthogonalEdgeStyle;rounded=0;orthogonalLoop=1;jettySize=auto;html=1;dashed=1;" edge="1" parent="1" source="lP-BkphfwcFj27sYCUh9-35" target="lP-BkphfwcFj27sYCUh9-33">
          <mxGeometry relative="1" as="geometry" />
        </mxCell>
        <mxCell id="lP-BkphfwcFj27sYCUh9-39" value="true" style="edgeLabel;html=1;align=center;verticalAlign=middle;resizable=0;points=[];" vertex="1" connectable="0" parent="lP-BkphfwcFj27sYCUh9-38">
          <mxGeometry x="-0.2133" y="-1" relative="1" as="geometry">
            <mxPoint as="offset" />
          </mxGeometry>
        </mxCell>
        <mxCell id="lP-BkphfwcFj27sYCUh9-43" style="edgeStyle=orthogonalEdgeStyle;rounded=0;orthogonalLoop=1;jettySize=auto;html=1;dashed=1;" edge="1" parent="1" source="lP-BkphfwcFj27sYCUh9-13" target="lP-BkphfwcFj27sYCUh9-18">
          <mxGeometry relative="1" as="geometry" />
        </mxCell>
        <mxCell id="lP-BkphfwcFj27sYCUh9-44" value="yes" style="edgeLabel;html=1;align=center;verticalAlign=middle;resizable=0;points=[];" vertex="1" connectable="0" parent="lP-BkphfwcFj27sYCUh9-43">
          <mxGeometry x="-0.2711" y="-2" relative="1" as="geometry">
            <mxPoint as="offset" />
          </mxGeometry>
        </mxCell>
        <mxCell id="lP-BkphfwcFj27sYCUh9-45" style="edgeStyle=orthogonalEdgeStyle;rounded=0;orthogonalLoop=1;jettySize=auto;html=1;entryX=0.5;entryY=1;entryDx=0;entryDy=0;dashed=1;" edge="1" parent="1" source="lP-BkphfwcFj27sYCUh9-18" target="lP-BkphfwcFj27sYCUh9-5">
          <mxGeometry relative="1" as="geometry" />
        </mxCell>
        <mxCell id="lP-BkphfwcFj27sYCUh9-50" style="edgeStyle=orthogonalEdgeStyle;rounded=0;orthogonalLoop=1;jettySize=auto;html=1;entryX=1;entryY=0.5;entryDx=0;entryDy=0;dashed=1;" edge="1" parent="1" source="lP-BkphfwcFj27sYCUh9-46" target="lP-BkphfwcFj27sYCUh9-28">
          <mxGeometry relative="1" as="geometry">
            <Array as="points">
              <mxPoint x="720" y="180" />
            </Array>
          </mxGeometry>
        </mxCell>
      </root>
    </mxGraphModel>
  </diagram>
</mxfile>
